<svg width="62" height="62" viewBox="0 0 62 62" fill="none" xmlns="http://www.w3.org/2000/svg">
<g clip-path="url(#clip0_1115_202)">
<path d="M14.3607 33.5651C12.3498 30.2302 11.3443 28.5628 11.3125 26.8884C11.2916 25.7915 11.5599 24.7084 12.0903 23.748C12.8999 22.282 14.5673 21.2766 17.9022 19.2657L30.8368 11.4663C32.0803 10.7164 32.702 10.3415 33.2811 10.1326C35.6589 9.27469 38.3194 9.93362 40.022 11.8021C40.4366 12.2572 40.8115 12.8789 41.5613 14.1224C41.8113 14.5369 41.9362 14.7441 42.0059 14.9371C42.2918 15.7297 42.0722 16.6166 41.4494 17.1841C41.2977 17.3223 41.0904 17.4473 40.676 17.6972L14.3607 33.5651Z" stroke="#FA4C3F" stroke-opacity="0.937255" stroke-width="1.5"/>
<path d="M31.1246 11.2574L32.9353 22.3294" stroke="#FA4C3F" stroke-opacity="0.937255" stroke-width="1.5" stroke-linecap="round"/>
<path d="M19.5281 18.2498L21.3389 29.3218" stroke="#FA4C3F" stroke-opacity="0.937255" stroke-width="1.5" stroke-linecap="round"/>
<path d="M37.5508 38.8021C37.307 37.9569 36.3475 37.6162 34.4285 36.9348C32.4832 36.2442 31.5106 35.8988 31.032 36.4964C30.5533 37.094 30.8841 38.2408 31.5456 40.5342C32.2071 42.8277 32.5379 43.9744 33.2613 44.2253C33.9846 44.4762 34.6239 43.6659 35.9025 42.0454C37.1639 40.4467 37.7946 39.6473 37.5508 38.8021Z" stroke="#FA4C3F" stroke-opacity="0.937255" stroke-width="1.5" stroke-linecap="round"/>
<path d="M49.2727 34.3371C50.9057 39.9988 51.7223 42.8297 50.4707 45.0959C49.2192 47.3621 46.3883 48.1786 40.7266 49.8117L32.7196 52.1212C27.0579 53.7542 24.227 54.5708 21.9608 53.3192C19.6946 52.0677 18.8781 49.2368 17.245 43.575L14.3582 33.5664L38.3789 26.6379C42.1534 25.5492 44.0406 25.0049 45.5514 25.8392C46.4177 26.3176 46.9662 27.1421 47.4818 28.47" stroke="#FA4C3F" stroke-opacity="0.937255" stroke-width="1.5" stroke-linecap="round"/>
</g>
<defs>
<clipPath id="clip0_1115_202">
<rect width="50" height="50" fill="white" transform="translate(0 13.8569) rotate(-16.0896)"/>
</clipPath>
</defs>
</svg>
