<svg width="307" height="157" viewBox="0 0 307 157" fill="none" xmlns="http://www.w3.org/2000/svg">
<path d="M53.9359 23.25V58H48.2359V34.2L37.6359 58H33.6859L23.0359 34.2V58H17.3359V23.25H23.4859L35.6859 50.5L47.8359 23.25H53.9359ZM73.3777 58.45C70.7777 58.45 68.4277 57.8667 66.3277 56.7C64.2277 55.5 62.5777 53.8333 61.3777 51.7C60.1777 49.5333 59.5777 47.0333 59.5777 44.2C59.5777 41.4 60.1944 38.9167 61.4277 36.75C62.6611 34.5833 64.3444 32.9167 66.4777 31.75C68.6111 30.5833 70.9944 30 73.6277 30C76.2611 30 78.6444 30.5833 80.7777 31.75C82.9111 32.9167 84.5944 34.5833 85.8277 36.75C87.0611 38.9167 87.6777 41.4 87.6777 44.2C87.6777 47 87.0444 49.4833 85.7777 51.65C84.5111 53.8167 82.7777 55.5 80.5777 56.7C78.4111 57.8667 76.0111 58.45 73.3777 58.45ZM73.3777 53.5C74.8444 53.5 76.2111 53.15 77.4777 52.45C78.7777 51.75 79.8277 50.7 80.6277 49.3C81.4277 47.9 81.8277 46.2 81.8277 44.2C81.8277 42.2 81.4444 40.5167 80.6777 39.15C79.9111 37.75 78.8944 36.7 77.6277 36C76.3611 35.3 74.9944 34.95 73.5277 34.95C72.0611 34.95 70.6944 35.3 69.4277 36C68.1944 36.7 67.2111 37.75 66.4777 39.15C65.7444 40.5167 65.3777 42.2 65.3777 44.2C65.3777 47.1667 66.1277 49.4667 67.6277 51.1C69.1611 52.7 71.0777 53.5 73.3777 53.5ZM103.963 52.9L111.763 30.45H117.812L107.313 58H100.513L90.0625 30.45H96.1625L103.963 52.9ZM125.021 26.8C123.988 26.8 123.121 26.45 122.421 25.75C121.721 25.05 121.371 24.1833 121.371 23.15C121.371 22.1167 121.721 21.25 122.421 20.55C123.121 19.85 123.988 19.5 125.021 19.5C126.021 19.5 126.871 19.85 127.571 20.55C128.271 21.25 128.621 22.1167 128.621 23.15C128.621 24.1833 128.271 25.05 127.571 25.75C126.871 26.45 126.021 26.8 125.021 26.8ZM127.821 30.45V58H122.121V30.45H127.821ZM160.555 43.55C160.555 44.5833 160.488 45.5167 160.355 46.35H139.305C139.471 48.55 140.288 50.3167 141.755 51.65C143.221 52.9833 145.021 53.65 147.155 53.65C150.221 53.65 152.388 52.3667 153.655 49.8H159.805C158.971 52.3333 157.455 54.4167 155.255 56.05C153.088 57.65 150.388 58.45 147.155 58.45C144.521 58.45 142.155 57.8667 140.055 56.7C137.988 55.5 136.355 53.8333 135.155 51.7C133.988 49.5333 133.405 47.0333 133.405 44.2C133.405 41.3667 133.971 38.8833 135.105 36.75C136.271 34.5833 137.888 32.9167 139.955 31.75C142.055 30.5833 144.455 30 147.155 30C149.755 30 152.071 30.5667 154.105 31.7C156.138 32.8333 157.721 34.4333 158.855 36.5C159.988 38.5333 160.555 40.8833 160.555 43.55ZM154.605 41.75C154.571 39.65 153.821 37.9667 152.355 36.7C150.888 35.4333 149.071 34.8 146.905 34.8C144.938 34.8 143.255 35.4333 141.855 36.7C140.455 37.9333 139.621 39.6167 139.355 41.75H154.605Z" fill="#FA4C3F"/>
<path d="M92.0916 97.8C95.0316 97.8 97.6449 98.43 99.9316 99.69C102.265 100.95 104.085 102.817 105.392 105.29C106.745 107.763 107.422 110.75 107.422 114.25V137H99.5116V115.44C99.5116 111.987 98.6483 109.35 96.9216 107.53C95.1949 105.663 92.8383 104.73 89.8516 104.73C86.8649 104.73 84.4849 105.663 82.7116 107.53C80.9849 109.35 80.1216 111.987 80.1216 115.44V137H72.1416V85.2H80.1216V102.91C81.4749 101.277 83.1783 100.017 85.2316 99.13C87.3316 98.2433 89.6183 97.8 92.0916 97.8ZM152.951 116.77C152.951 118.217 152.857 119.523 152.671 120.69H123.201C123.434 123.77 124.577 126.243 126.631 128.11C128.684 129.977 131.204 130.91 134.191 130.91C138.484 130.91 141.517 129.113 143.291 125.52H151.901C150.734 129.067 148.611 131.983 145.531 134.27C142.497 136.51 138.717 137.63 134.191 137.63C130.504 137.63 127.191 136.813 124.251 135.18C121.357 133.5 119.071 131.167 117.391 128.18C115.757 125.147 114.941 121.647 114.941 117.68C114.941 113.713 115.734 110.237 117.321 107.25C118.954 104.217 121.217 101.883 124.111 100.25C127.051 98.6167 130.411 97.8 134.191 97.8C137.831 97.8 141.074 98.5933 143.921 100.18C146.767 101.767 148.984 104.007 150.571 106.9C152.157 109.747 152.951 113.037 152.951 116.77ZM144.621 114.25C144.574 111.31 143.524 108.953 141.471 107.18C139.417 105.407 136.874 104.52 133.841 104.52C131.087 104.52 128.731 105.407 126.771 107.18C124.811 108.907 123.644 111.263 123.271 114.25H144.621ZM158.144 117.54C158.144 113.667 158.937 110.237 160.524 107.25C162.157 104.263 164.35 101.953 167.104 100.32C169.904 98.64 172.984 97.8 176.344 97.8C179.377 97.8 182.014 98.4067 184.254 99.62C186.54 100.787 188.36 102.257 189.714 104.03V98.43H197.764V137H189.714V131.26C188.36 133.08 186.517 134.597 184.184 135.81C181.85 137.023 179.19 137.63 176.204 137.63C172.89 137.63 169.857 136.79 167.104 135.11C164.35 133.383 162.157 131.003 160.524 127.97C158.937 124.89 158.144 121.413 158.144 117.54ZM189.714 117.68C189.714 115.02 189.154 112.71 188.034 110.75C186.96 108.79 185.537 107.297 183.764 106.27C181.99 105.243 180.077 104.73 178.024 104.73C175.97 104.73 174.057 105.243 172.284 106.27C170.51 107.25 169.064 108.72 167.944 110.68C166.87 112.593 166.334 114.88 166.334 117.54C166.334 120.2 166.87 122.533 167.944 124.54C169.064 126.547 170.51 128.087 172.284 129.16C174.104 130.187 176.017 130.7 178.024 130.7C180.077 130.7 181.99 130.187 183.764 129.16C185.537 128.133 186.96 126.64 188.034 124.68C189.154 122.673 189.714 120.34 189.714 117.68ZM217.555 104.94V126.29C217.555 127.737 217.882 128.787 218.535 129.44C219.235 130.047 220.402 130.35 222.035 130.35H226.935V137H220.635C217.042 137 214.288 136.16 212.375 134.48C210.462 132.8 209.505 130.07 209.505 126.29V104.94H204.955V98.43H209.505V88.84H217.555V98.43H226.935V104.94H217.555ZM269.64 116.77C269.64 118.217 269.547 119.523 269.36 120.69H239.89C240.123 123.77 241.267 126.243 243.32 128.11C245.373 129.977 247.893 130.91 250.88 130.91C255.173 130.91 258.207 129.113 259.98 125.52H268.59C267.423 129.067 265.3 131.983 262.22 134.27C259.187 136.51 255.407 137.63 250.88 137.63C247.193 137.63 243.88 136.813 240.94 135.18C238.047 133.5 235.76 131.167 234.08 128.18C232.447 125.147 231.63 121.647 231.63 117.68C231.63 113.713 232.423 110.237 234.01 107.25C235.643 104.217 237.907 101.883 240.8 100.25C243.74 98.6167 247.1 97.8 250.88 97.8C254.52 97.8 257.763 98.5933 260.61 100.18C263.457 101.767 265.673 104.007 267.26 106.9C268.847 109.747 269.64 113.037 269.64 116.77ZM261.31 114.25C261.263 111.31 260.213 108.953 258.16 107.18C256.107 105.407 253.563 104.52 250.53 104.52C247.777 104.52 245.42 105.407 243.46 107.18C241.5 108.907 240.333 111.263 239.96 114.25H261.31ZM285.473 104.03C286.64 102.07 288.18 100.553 290.093 99.48C292.053 98.36 294.363 97.8 297.023 97.8V106.06H294.993C291.866 106.06 289.486 106.853 287.853 108.44C286.266 110.027 285.473 112.78 285.473 116.7V137H277.493V98.43H285.473V104.03Z" fill="#FA4C3F"/>
<line x1="56.5" y1="85.5" x2="56.5" y2="129.5" stroke="#FA4C3F" stroke-width="15" stroke-linecap="square"/>
<line x1="289.5" y1="71.5" x2="24.5" y2="71.5" stroke="#FA4C3F" stroke-width="15" stroke-linecap="square"/>
<g clip-path="url(#clip0_1109_159)">
<path d="M259.361 37.5651C257.35 34.2302 256.344 32.5628 256.313 30.8884C256.292 29.7915 256.56 28.7084 257.09 27.748C257.9 26.282 259.567 25.2766 262.902 23.2657L275.837 15.4663C277.08 14.7164 277.702 14.3415 278.281 14.1326C280.659 13.2747 283.319 13.9336 285.022 15.8021C285.437 16.2572 285.812 16.8789 286.561 18.1224C286.811 18.5369 286.936 18.7441 287.006 18.9371C287.292 19.7297 287.072 20.6166 286.449 21.1841C286.298 21.3223 286.09 21.4473 285.676 21.6972L259.361 37.5651Z" stroke="#FA4C3F" stroke-opacity="0.937255" stroke-width="1.5"/>
<path d="M276.125 15.2574L277.936 26.3294" stroke="#FA4C3F" stroke-opacity="0.937255" stroke-width="1.5" stroke-linecap="round"/>
<path d="M264.528 22.2498L266.339 33.3218" stroke="#FA4C3F" stroke-opacity="0.937255" stroke-width="1.5" stroke-linecap="round"/>
<path d="M282.551 42.8021C282.307 41.9569 281.348 41.6162 279.429 40.9348C277.483 40.2442 276.511 39.8988 276.032 40.4964C275.554 41.094 275.884 42.2408 276.546 44.5342C277.207 46.8277 277.538 47.9744 278.262 48.2253C278.985 48.4762 279.624 47.6659 280.903 46.0454C282.164 44.4467 282.795 43.6473 282.551 42.8021Z" stroke="#FA4C3F" stroke-opacity="0.937255" stroke-width="1.5" stroke-linecap="round"/>
<path d="M294.272 38.3371C295.905 43.9988 296.722 46.8297 295.47 49.0959C294.219 51.3621 291.388 52.1786 285.726 53.8117L277.719 56.1212C272.058 57.7542 269.227 58.5708 266.961 57.3192C264.694 56.0677 263.878 53.2368 262.245 47.575L259.358 37.5664L283.379 30.6379C287.153 29.5492 289.04 29.0049 290.551 29.8392C291.417 30.3176 291.966 31.1421 292.482 32.47" stroke="#FA4C3F" stroke-opacity="0.937255" stroke-width="1.5" stroke-linecap="round"/>
</g>
<defs>
<clipPath id="clip0_1109_159">
<rect width="50" height="50" fill="white" transform="translate(245 17.8569) rotate(-16.0896)"/>
</clipPath>
</defs>
</svg>
