<svg width="295" height="218" viewBox="0 0 295 218" fill="none" xmlns="http://www.w3.org/2000/svg">
<g clip-path="url(#clip0_1112_124)">
<path opacity="0.1" d="M3.17529 104.517C7.83353 122.553 17.6863 138.144 33.2567 145.701C65.6256 161.408 138.626 153.307 193.109 144.009C221.292 139.2 246.063 125.927 264.058 107.25L3.17529 104.517Z" fill="#FA4C3F"/>
<path opacity="0.1" d="M288.88 19.6209H258.986C257.568 19.6209 256.404 18.5677 256.404 17.2808C256.404 15.9939 257.568 14.938 258.986 14.938H264.157C262.736 14.938 261.574 13.8848 261.574 12.5952C261.574 11.3056 262.736 10.2551 264.157 10.2551H260.467C259.045 10.2551 257.882 9.20195 257.882 7.91234C257.882 6.62274 259.045 5.57224 260.467 5.57224H276.069C272.607 4.11338 268.56 3.07632 263.897 2.53092C221.351 -2.42063 206.161 0.854432 200.803 4.22084C194.124 8.46915 186.705 11.4169 178.936 12.9096C152.686 17.8181 103.597 23.7235 59.1035 11.0289C36.9896 4.70713 20.553 15.3759 10.7029 33.2101H294.072C293.702 28.0275 292.594 23.2399 290.562 19.0513C290.08 19.4237 289.488 19.6242 288.88 19.6209Z" fill="#FA4C3F"/>
<path opacity="0.1" d="M0.640894 66.8716C-0.507317 77.3608 -0.117006 87.962 1.79942 98.338L264.259 107.04C271.484 99.5332 277.622 91.0485 282.495 81.8337L0.640894 66.8716ZM104.447 89.3188H99.279C100.7 89.3188 101.864 90.3747 101.864 91.6616C101.864 92.9485 100.7 94.0017 99.279 94.0017H69.3854C67.9667 94.0017 66.8028 92.9485 66.8028 91.6616C66.8028 90.3747 67.9667 89.3188 69.3854 89.3188H74.5558C73.1345 89.3188 71.9733 88.2656 71.9733 86.9787C71.9733 85.6918 73.1345 84.6359 74.5558 84.6359H70.863C69.4417 84.6359 68.2778 83.5827 68.2778 82.2958C68.2778 81.0089 69.4417 79.953 70.863 79.953H100.757C102.178 79.953 103.339 81.0062 103.339 82.2958C103.339 83.5854 102.178 84.6359 100.757 84.6359H104.447C105.868 84.6359 107.029 85.6891 107.029 86.9787C107.029 88.2683 105.868 89.3188 104.447 89.3188Z" fill="#FA4C3F"/>
<path opacity="0.1" d="M294.083 33.3713L7.54111 39.685C4.05481 47.8069 1.74313 56.99 0.678467 66.5062H289.063C290.939 60.9386 292.332 55.2188 293.225 49.4108C294.085 43.8198 294.429 38.4116 294.083 33.3713ZM58.8568 54.0722H53.689C55.1103 54.0722 56.2742 55.1281 56.2742 56.415C56.2742 57.7019 55.1103 58.7578 53.689 58.7578H23.7953C22.3767 58.7578 21.2128 57.7019 21.2128 56.415C21.2128 55.1281 22.3767 54.0722 23.7953 54.0722H28.9658C27.5444 54.0722 26.3832 53.019 26.3832 51.7321C26.3832 50.4452 27.5444 49.3893 28.9658 49.3893H25.273C23.8516 49.3893 22.6877 48.3362 22.6877 47.0492C22.6877 45.7623 23.8516 44.7064 25.273 44.7064H55.1667C56.588 44.7064 57.7492 45.7596 57.7492 47.0492C57.7492 48.3388 56.588 49.3893 55.1667 49.3893H58.8568C60.2781 49.3893 61.4393 50.4452 61.4393 51.7321C61.4393 53.019 60.2781 54.0722 58.8568 54.0722Z" fill="#FA4C3F"/>
<path opacity="0.1" d="M146.178 209.851C212.38 209.851 266.048 204.905 266.048 198.804C266.048 192.702 212.38 187.756 146.178 187.756C79.9756 187.756 26.3081 192.702 26.3081 198.804C26.3081 204.905 79.9756 209.851 146.178 209.851Z" fill="#FA4C3F"/>
<path d="M268.349 107.553C268.347 107.534 268.347 107.516 268.349 107.497C268.349 107.467 268.349 107.44 268.349 107.413C268.295 107.106 268.179 106.812 268.008 106.551C267.394 105.567 266.539 104.757 265.525 104.198C263.755 103.225 261.322 102.809 260.614 100.952C260.397 100.377 260.392 99.7511 260.285 99.1493C260.097 98.2116 259.666 97.3399 259.036 96.6217C258.406 95.9035 257.598 95.364 256.694 95.0574C255.852 94.7753 254.942 94.6974 254.124 94.3482C252.296 93.569 251.33 91.648 250.512 89.8721C249.454 87.5795 248.395 85.286 247.337 82.9916C246.532 83.3972 245.492 83.2065 244.738 82.6987C244.012 82.1571 243.434 81.441 243.057 80.6165C241.965 78.4941 241.496 76.0895 240.214 74.0691C238.932 72.0487 236.371 70.4528 234.108 71.3314C233.666 71.5526 233.209 71.742 232.74 71.8982C230.801 72.3523 228.656 70.1331 226.996 71.2105C226.72 71.3876 226.495 71.634 226.344 71.9251C226.343 71.9072 226.343 71.8893 226.344 71.8714C226.128 72.3084 226.007 72.7865 225.99 73.2738C225.99 73.3732 225.99 73.47 225.99 73.564C225.99 73.5801 225.99 73.5962 225.99 73.6123C225.99 73.9992 226.014 74.3915 226.02 74.7837C226.026 75.1132 226 75.4424 225.944 75.7671V75.7402C225.913 75.9229 225.866 76.1027 225.805 76.2775C225.373 77.4382 224.177 78.1985 223.617 79.2893V79.2356C223.554 79.3542 223.499 79.4772 223.453 79.6036C223.353 79.8896 223.302 80.1901 223.3 80.4929C223.252 82.5429 225.422 84.4719 225.674 86.6723C225.853 88.2306 226.21 88.7303 227.532 89.6115L227.822 89.805C227.706 89.805 227.588 89.8211 227.457 89.8238C227.406 89.8247 227.355 89.8301 227.304 89.8399C227.071 89.7756 226.826 89.7639 226.588 89.8057C226.349 89.8475 226.123 89.9418 225.926 90.0817C224.912 90.8877 222.514 90.2671 221.45 90.0817C220.385 89.8963 216.738 90.396 216.228 92.4218C215.719 94.4476 214.845 98.628 214.845 98.628C214.845 98.628 214.845 101.28 214.52 101.774C214.508 101.809 214.508 101.847 214.52 101.882C214.52 102.626 214.547 107.099 213.828 108.252C213.651 108.52 213.665 109.114 213.796 109.845C213.04 110.82 212.329 111.959 212.455 112.706C212.686 114.235 215.781 119.041 220.216 116.468C220.216 116.468 222.74 111.844 219.565 109.386L219.701 108.848C220.661 110.03 221.372 110.879 221.372 110.879C221.372 110.879 221.41 110.979 221.469 111.148H221.372C221.786 112.278 222.038 113.461 222.118 114.662C222.105 115.102 222.026 115.538 221.882 115.954H221.965C221.941 116.046 221.914 116.137 221.882 116.223C221.726 116.677 221.435 117.072 221.048 117.354C218.83 118.929 216.29 130.172 216.29 130.172C216.29 130.172 211.259 148.348 210.253 149.382C209.422 150.231 214.646 152.622 218.567 152.337C219.114 152.305 219.655 152.202 220.176 152.031C220.2 152.3 220.227 152.569 220.254 152.813C220.337 153.619 220.423 154.366 220.476 154.6C220.616 155.185 220.892 161.166 220.892 161.166C220.892 161.166 220.326 165.051 220.463 167.754C220.463 167.939 220.487 168.116 220.503 168.291L220.015 168.366C219.275 170.032 222.324 183.93 222.74 185.099C223.015 186.02 223.17 186.973 223.201 187.933C223.201 187.933 222.933 188.922 223.155 189.462C223.294 189.792 223.384 190.14 223.424 190.496C223.424 190.496 223.241 191.394 223.517 191.979C223.794 192.565 223.472 193.591 223.472 193.591C223.472 193.591 223.381 197.64 222.549 199.843C222.323 200.436 222.257 201.079 222.358 201.705C222.46 202.332 222.724 202.92 223.126 203.411C223.184 203.488 223.246 203.561 223.314 203.629C223.314 203.629 227.899 203.667 228.707 203.629H228.811C229.136 203.583 229.967 199.94 229.227 198.186C228.487 196.431 229.136 194.271 229.136 194.271V191.079C229.136 191.079 229.967 190.311 229.136 188.661C228.304 187.012 228.441 186.512 228.441 186.512C228.441 186.512 229.366 183.858 228.396 183.003C227.425 182.149 228.581 178.909 228.581 178.909L228.908 168.108C228.737 168.052 228.562 168.008 228.385 167.974C228.366 167.797 228.347 167.614 228.329 167.421C228.138 165.465 227.975 162.805 228.398 162.047C228.822 161.29 229.026 154.675 229.093 150.078L233.319 150.239C233.408 152.389 233.502 154.35 233.561 154.6C233.7 155.185 233.979 161.166 233.979 161.166C233.979 161.166 233.411 165.051 233.547 167.754C233.547 167.939 233.571 168.116 233.588 168.291L233.099 168.366C232.359 170.032 235.408 183.93 235.824 185.099C236.1 186.02 236.256 186.972 236.288 187.933C236.288 187.933 236.02 188.922 236.24 189.462C236.378 189.792 236.469 190.14 236.508 190.496C236.508 190.496 236.326 191.394 236.602 191.979C236.878 192.565 236.556 193.591 236.556 193.591C236.556 193.591 236.465 197.64 235.634 199.843C235.411 200.437 235.349 201.079 235.453 201.705C235.558 202.33 235.825 202.917 236.229 203.406C236.287 203.482 236.35 203.555 236.417 203.624C236.417 203.624 241.003 203.661 241.81 203.624H241.914C242.239 203.578 243.07 199.935 242.33 198.18C241.59 196.426 242.239 194.266 242.239 194.266V191.079C242.239 191.079 243.07 190.311 242.239 188.661C241.408 187.012 241.544 186.512 241.544 186.512C241.544 186.512 242.47 183.858 241.499 183.003C240.528 182.149 241.684 178.909 241.684 178.909L242.016 168.108C241.841 168.052 241.662 168.007 241.48 167.974C241.461 167.797 241.442 167.614 241.424 167.421C241.233 165.465 241.07 162.805 241.493 162.047C241.834 161.427 242.03 157.429 242.118 153.525C242.118 153.256 242.118 152.988 242.14 152.719C244.082 152.638 246.015 152.421 247.927 152.069C247.927 152.069 245.666 144.06 246.358 142.757C246.656 142.195 246.227 139.205 245.639 135.984C246.458 136.648 247.477 137.017 248.53 137.031C249.541 138.979 252.617 143.461 254.35 144.151C256.383 144.957 254.857 137.811 253.889 136.776C253.43 136.211 253.045 135.591 252.741 134.93C252.768 134.898 252.797 134.871 252.824 134.842C252.851 134.812 252.872 127.239 252.408 127.376C251.944 127.513 251.392 126.25 251.392 126.25L249.96 113.657L249.359 108.386C249.86 108.757 250.456 108.993 250.968 109.361C252.363 110.385 252.818 112.182 253.43 113.773C253.934 115.081 254.642 116.379 255.803 117.201C256.964 118.023 258.667 118.241 259.826 117.408C260.899 116.626 261.215 115.216 261.451 113.929C263.398 114.614 265.761 112.781 265.509 110.78C265.447 110.286 265.265 109.746 265.522 109.313C266.037 108.459 267.667 108.956 268.204 108.112C268.294 107.966 268.341 107.797 268.338 107.626C268.346 107.588 268.349 107.572 268.349 107.553ZM242.306 114.479C242.276 114.96 242.936 118.824 243.473 121.881C243.033 119.976 242.15 117.943 240.413 116.548C240.413 116.548 240.413 116.451 240.391 116.28H240.413C240.413 116.28 240.34 115.511 240.329 114.418C240.333 113.448 240.404 112.481 240.544 111.521V111.497H240.509C240.509 111.417 240.531 111.333 240.544 111.253C240.651 110.443 240.87 109.653 241.196 108.905C241.34 108.611 241.506 108.329 241.692 108.061C241.979 110.659 242.333 113.993 242.306 114.479ZM243.749 123.431C243.985 124.751 244.154 125.678 244.154 125.678L245.578 135.473V135.519C244.811 131.384 243.832 127.026 243.832 127.026C243.932 125.828 243.904 124.623 243.749 123.431Z" fill="url(#paint0_linear_1112_124)"/>
<path d="M226.296 87.2096C226.028 84.7271 223.346 82.5859 224.15 80.2243C224.588 78.9373 225.955 78.1501 226.417 76.8713C226.722 76.0277 226.586 75.1008 226.588 74.2034C226.591 73.3061 226.8 72.3039 227.546 71.8069C229.155 70.7322 231.225 72.9433 233.102 72.492C233.556 72.3365 233.998 72.1479 234.424 71.9278C236.615 71.0546 239.093 72.6451 240.324 74.6548C241.555 76.6644 242.016 79.0609 243.073 81.1727C243.434 81.9881 243.992 82.7002 244.698 83.2441C245.428 83.7492 246.425 83.9399 247.214 83.5369L250.284 90.388C251.089 92.1531 252.011 94.066 253.771 94.8425C254.559 95.1891 255.439 95.267 256.254 95.5491C257.14 95.8622 257.928 96.403 258.54 97.1173C259.152 97.8317 259.566 98.6945 259.74 99.6194C259.845 100.221 259.847 100.845 260.059 101.417C260.743 103.265 263.095 103.679 264.809 104.641C265.8 105.201 266.631 106.007 267.222 106.981C267.491 107.446 267.721 108.056 267.434 108.512C266.917 109.351 265.342 108.856 264.844 109.708C264.592 110.138 264.769 110.675 264.844 111.169C265.088 113.16 262.8 114.985 260.918 114.302C260.69 115.584 260.381 116.989 259.346 117.765C258.233 118.598 256.584 118.378 255.46 117.561C254.336 116.744 253.655 115.452 253.167 114.149C252.575 112.564 252.132 110.775 250.783 109.756C250.295 109.391 249.71 109.154 249.233 108.786C248.16 107.964 247.624 106.607 247.24 105.294C246.744 103.655 246.35 101.97 245.631 100.423C244.913 98.8752 243.776 97.4351 242.218 96.7285C240.756 96.0703 239.072 96.1133 237.562 95.5786C234.963 94.6598 233.041 92.4702 230.455 91.4385C229.629 91.0904 228.846 90.6468 228.122 90.1166C226.822 89.2596 226.468 88.7625 226.296 87.2096Z" fill="#3F3D56"/>
<g opacity="0.1">
<path d="M226.537 76.3447C226.592 76.2396 226.641 76.131 226.682 76.0196C226.985 75.176 226.851 74.249 226.854 73.3517C226.853 73.0524 226.881 72.7538 226.937 72.4597C226.689 72.9906 226.569 73.572 226.585 74.1577C226.583 74.8804 226.669 75.6381 226.537 76.3447Z" fill="black"/>
<path d="M259.598 116.922C258.485 117.752 256.836 117.534 255.712 116.715C254.588 115.895 253.904 114.608 253.43 113.3C252.837 111.715 252.397 109.926 251.046 108.907C250.56 108.542 249.973 108.303 249.498 107.937C248.426 107.115 247.889 105.759 247.503 104.458C247.007 102.819 246.615 101.135 245.894 99.5872C245.173 98.0397 244.041 96.5996 242.48 95.893C241.021 95.2348 239.337 95.2778 237.827 94.7431C235.226 93.8243 233.303 91.6346 230.721 90.6029C229.894 90.2539 229.11 89.8103 228.385 89.2811C227.114 88.4026 226.776 87.9055 226.588 86.3553C226.32 84.0286 223.96 82.0002 224.327 79.8079C224.267 79.9265 224.215 80.0485 224.169 80.1733C223.364 82.5375 226.046 84.6788 226.314 87.1586C226.489 88.7088 226.851 89.2059 228.111 90.0844C228.836 90.6137 229.62 91.0572 230.447 91.4063C233.03 92.438 234.952 94.6303 237.554 95.5464C239.064 96.0838 240.748 96.0381 242.207 96.6963C243.767 97.4029 244.888 98.8457 245.62 100.391C246.353 101.935 246.744 103.615 247.23 105.261C247.624 106.562 248.141 107.919 249.225 108.741C249.71 109.106 250.298 109.345 250.772 109.711C252.113 110.729 252.564 112.518 253.156 114.103C253.644 115.406 254.328 116.696 255.452 117.513C256.576 118.329 258.225 118.55 259.338 117.72C260.048 117.182 260.41 116.363 260.649 115.484C260.437 116.051 260.073 116.548 259.598 116.922Z" fill="black"/>
<path d="M265.109 108.864C265.006 109.057 264.962 109.275 264.98 109.493C265.586 108.894 266.954 109.246 267.431 108.475C267.542 108.284 267.586 108.062 267.555 107.843C266.933 108.434 265.565 108.082 265.109 108.864Z" fill="black"/>
<path d="M261.169 113.458C261.118 113.727 261.068 114.015 261.003 114.294C262.644 114.807 264.54 113.488 264.809 111.822C264.157 113.104 262.548 113.961 261.169 113.458Z" fill="black"/>
</g>
<path d="M229.761 88.5019C229.761 88.5019 230.654 90.3074 228.017 90.345C225.381 90.3826 229.715 102.07 229.715 102.07L234.097 107.658L239.549 104.703L239.863 96.5512L240.265 91.6265C240.265 91.6265 235.17 89.9688 236.108 87.7765C237.047 85.5842 229.761 88.5019 229.761 88.5019Z" fill="#FBBEBE"/>
<path d="M245.586 136.153C245.586 136.153 248.804 139.326 252.558 135.116L249.675 132.05H246.028L245.586 136.153Z" fill="#863232"/>
<path opacity="0.1" d="M245.934 132.05L245.492 136.153C245.492 136.153 248.71 139.326 252.465 135.116" fill="black"/>
<path d="M251.349 132.609C251.349 132.609 252.644 136.013 253.583 137.042C254.521 138.071 255.996 145.191 254.03 144.385C252.065 143.579 248.31 137.579 248.085 136.55C247.86 135.521 247.774 132.609 247.774 132.609H251.349Z" fill="#FBBEBE"/>
<path d="M223.236 150.073L240.576 150.744L238.565 143.399L229.83 143.222L223.236 150.073Z" fill="#863232"/>
<path opacity="0.1" d="M226 150.851L243.343 151.523L241.332 144.177L232.594 144L226 150.851Z" fill="black"/>
<path d="M228.91 162.198C228.5 162.963 228.658 165.612 228.843 167.571C228.961 168.818 229.09 169.777 229.09 169.777C229.09 169.777 222.608 171.792 221.627 170.045C221.377 169.602 221.254 168.826 221.211 167.915C221.077 165.228 221.627 161.357 221.627 161.357C221.627 161.357 221.359 155.403 221.224 154.82C221.171 154.586 221.088 153.845 221.007 153.041C220.889 151.848 220.777 150.521 220.777 150.521L229.626 145.82C229.626 145.82 229.626 146.701 229.61 148.058C229.562 152.319 229.42 161.257 228.91 162.198Z" fill="#FBBEBE"/>
<path opacity="0.1" d="M229.09 169.777C229.09 169.777 222.608 171.792 221.627 170.045C221.377 169.602 221.254 168.826 221.211 167.915C222.552 167.711 226.634 167.147 228.844 167.571C228.962 168.818 229.09 169.777 229.09 169.777Z" fill="black"/>
<path d="M229.313 203.629H229.211C228.43 203.658 223.995 203.629 223.995 203.629C223.93 203.561 223.869 203.489 223.812 203.414C223.42 202.922 223.161 202.338 223.06 201.716C222.959 201.095 223.02 200.459 223.236 199.868C224.04 197.673 224.129 193.643 224.129 193.643C224.129 193.643 224.443 192.614 224.174 192.03C223.906 191.447 224.083 190.553 224.083 190.553C224.042 190.199 223.952 189.853 223.815 189.524C223.592 188.986 223.861 188 223.861 188C223.83 187.045 223.679 186.097 223.413 185.179C223.011 184.016 220.061 170.18 220.777 168.522C220.777 168.522 227.033 167.447 229.404 168.253L229.09 179C229.09 179 227.972 182.224 228.91 183.076C229.849 183.927 228.956 186.568 228.956 186.568C228.956 186.568 228.822 187.06 229.626 188.718C230.431 190.376 229.626 191.136 229.626 191.136V194.314C229.626 194.314 229.002 196.464 229.715 198.21C230.428 199.956 229.626 203.572 229.313 203.629Z" fill="#3F3D56"/>
<path d="M241.593 162.198C241.182 162.963 241.34 165.612 241.525 167.571C241.643 168.818 241.772 169.777 241.772 169.777C241.772 169.777 235.29 171.792 234.309 170.045C234.059 169.602 233.936 168.826 233.893 167.915C233.759 165.228 234.309 161.357 234.309 161.357C234.309 161.357 234.041 155.403 233.907 154.82C233.834 154.506 233.708 151.507 233.609 148.818C233.526 146.524 233.459 144.449 233.459 144.449L242.309 145.82C242.309 145.82 242.309 149.718 242.199 153.724C242.102 157.609 241.922 161.59 241.593 162.198Z" fill="#FBBEBE"/>
<path opacity="0.1" d="M241.772 169.777C241.772 169.777 235.291 171.792 234.309 170.045C234.06 169.602 233.936 168.826 233.893 167.915C235.234 167.711 239.316 167.147 241.526 167.571C241.644 168.818 241.772 169.777 241.772 169.777Z" fill="black"/>
<path d="M241.995 203.629H241.893C241.112 203.658 236.677 203.629 236.677 203.629C236.612 203.561 236.551 203.489 236.494 203.414C236.102 202.922 235.844 202.338 235.743 201.716C235.642 201.095 235.702 200.459 235.918 199.868C236.722 197.662 236.803 193.632 236.803 193.632C236.803 193.632 237.117 192.603 236.848 192.02C236.58 191.437 236.757 190.542 236.757 190.542C236.716 190.188 236.626 189.842 236.489 189.513C236.267 188.976 236.535 187.99 236.535 187.99C236.504 187.034 236.354 186.087 236.087 185.169C235.685 184.005 232.735 170.169 233.451 168.511C233.451 168.511 239.707 167.437 242.078 168.243L241.764 178.989C241.764 178.989 240.646 182.213 241.584 183.065C242.523 183.917 241.63 186.558 241.63 186.558C241.63 186.558 241.496 187.049 242.3 188.707C243.105 190.365 242.3 191.125 242.3 191.125V194.303C242.3 194.303 241.676 196.453 242.389 198.199C243.102 199.945 242.309 203.572 241.995 203.629Z" fill="#3F3D56"/>
<path opacity="0.1" d="M233.247 90.6137C236.728 90.6137 239.549 87.787 239.549 84.3C239.549 80.8131 236.728 77.9863 233.247 77.9863C229.766 77.9863 226.945 80.8131 226.945 84.3C226.945 87.787 229.766 90.6137 233.247 90.6137Z" fill="black"/>
<path d="M233.247 90.3449C236.728 90.3449 239.549 87.5182 239.549 84.0312C239.549 80.5443 236.728 77.7175 233.247 77.7175C229.766 77.7175 226.945 80.5443 226.945 84.0312C226.945 87.5182 229.766 90.3449 233.247 90.3449Z" fill="#FBBEBE"/>
<path opacity="0.1" d="M220.777 150.521L229.626 145.82C229.626 145.82 229.626 146.701 229.61 148.058C228.318 148.831 226.368 149.995 224.494 151.094C223.474 151.693 222.48 152.273 221.627 152.759C221.429 152.867 221.221 152.957 221.007 153.028C220.889 151.848 220.777 150.521 220.777 150.521Z" fill="black"/>
<path opacity="0.1" d="M242.309 145.809C242.309 145.809 242.309 149.707 242.199 153.713H242.166C241.505 153.737 240.843 153.716 240.185 153.651C239.029 153.528 238.104 153.221 237.771 152.614C237.098 151.432 235.213 149.928 233.62 148.807C233.537 146.513 233.469 144.439 233.469 144.439L242.309 145.809Z" fill="black"/>
<path d="M240.662 111.664C240.438 113.413 240.394 115.18 240.533 116.938C244.599 120.296 243.84 127.37 243.84 127.37C243.84 127.37 246.969 141.701 246.299 142.998C245.629 144.296 247.817 152.268 247.817 152.268C245.952 152.622 244.063 152.839 242.166 152.918C241.505 152.941 240.843 152.921 240.185 152.856C239.029 152.732 238.104 152.426 237.771 151.819C236.521 149.627 231.112 146.357 231.112 146.357C231.112 146.357 227.685 148.415 224.494 150.287C223.474 150.887 222.48 151.467 221.627 151.953C220.935 152.321 220.17 152.531 219.387 152.568C215.593 152.851 210.538 150.47 211.342 149.627C212.326 148.595 217.199 130.505 217.199 130.505C217.199 130.505 219.656 119.31 221.801 117.744C222.177 117.459 222.458 117.066 222.606 116.618C223.34 114.573 222.112 111.296 222.112 111.296C222.112 111.296 215.185 102.744 215.496 102.25C215.807 101.755 215.81 99.1169 215.81 99.1169C215.81 99.1169 216.66 94.9526 217.151 92.9376C217.642 90.9225 221.174 90.4282 222.201 90.6082C223.228 90.7882 225.55 91.4142 226.532 90.6082C227.513 89.8022 229.171 90.9225 229.171 90.9225L233.241 92.0456L236.902 89.8962C236.902 89.8962 240.571 90.0843 240.885 90.576C241.198 91.0676 246.025 92.0107 246.025 92.0107C248.482 93.6657 248.393 101.548 248.393 101.548C248.393 101.548 242.494 106.696 241.287 109.34C240.974 110.082 240.764 110.864 240.662 111.664Z" fill="#863232"/>
<path d="M247.058 100.458L248.399 101.532L249.785 114.026L251.169 126.564C251.169 126.564 251.705 127.819 252.153 127.685C252.601 127.55 252.556 135.116 252.556 135.116C252.556 135.116 247.423 131.954 245.583 136.153L244.151 126.027C244.151 126.027 242.317 115.683 242.362 114.877C242.408 114.071 241.424 105.339 241.424 105.339L247.058 100.458Z" fill="#863232"/>
<path d="M216.486 101.041L215.502 102.25C215.502 102.25 215.593 107.443 214.831 108.698C214.07 109.952 216.934 117.295 218.006 116.847C219.079 116.398 221.493 104.936 221.493 104.802C221.493 104.668 216.486 101.041 216.486 101.041Z" fill="#863232"/>
<path d="M216.397 108.429C216.397 108.429 213.268 111.608 213.49 113.131C213.713 114.654 216.708 119.439 220.999 116.868C220.999 116.868 224.979 109.37 216.397 108.429Z" fill="#863232"/>
<path opacity="0.1" d="M229.211 203.637C228.431 203.667 223.995 203.637 223.995 203.637C223.93 203.569 223.869 203.497 223.812 203.422C224.947 203.035 227.398 202.455 229.211 203.637Z" fill="black"/>
<path opacity="0.1" d="M241.898 203.637C241.118 203.667 236.682 203.637 236.682 203.637C236.617 203.569 236.557 203.497 236.5 203.422C237.629 203.035 240.08 202.455 241.898 203.637Z" fill="black"/>
<path opacity="0.1" d="M224.81 124.882C224.126 131.454 224.351 144.495 224.493 150.288C223.474 150.887 222.479 151.467 221.627 151.953C220.935 152.321 220.17 152.531 219.387 152.569C219.103 150.817 223.04 132.824 224.81 124.882Z" fill="black"/>
<path opacity="0.1" d="M225.647 121.153C225.628 121.247 225.304 122.677 224.81 124.882C225.003 122.999 225.271 121.648 225.647 121.153Z" fill="black"/>
<path opacity="0.1" d="M236.535 120.444C236.535 120.444 240.335 144.355 229.082 147.311C229.079 147.3 236.867 146.115 236.535 120.444Z" fill="black"/>
<path opacity="0.1" d="M242.167 152.918C241.505 152.941 240.843 152.921 240.185 152.856L237.149 120.162C239.085 121.43 241.402 144.632 242.167 152.918Z" fill="black"/>
<path opacity="0.1" d="M228.554 80.3184C228.755 80.3024 228.958 80.3233 229.152 80.3802C229.437 80.5223 229.693 80.7154 229.908 80.9498C230.258 81.2426 230.676 81.4418 231.123 81.5287C231.571 81.6156 232.033 81.5875 232.467 81.4469C232.772 81.3099 233.097 81.2194 233.429 81.1782C233.942 81.1782 234.384 81.5543 234.65 81.9842C234.915 82.4141 235.052 82.9245 235.28 83.3839C235.508 83.8434 235.872 84.2786 236.374 84.3915C236.614 84.4008 236.851 84.4555 237.071 84.5527C237.206 84.6625 237.31 84.8062 237.372 84.9691C237.79 85.8745 238.122 86.9438 239.016 87.3871C239.344 87.5396 239.702 87.6176 240.064 87.6155C240.432 87.6425 240.801 87.576 241.137 87.422C241.467 87.2373 241.74 86.9649 241.925 86.6348C242.483 85.7106 242.547 84.5661 242.416 83.4941C242.252 82.1418 241.772 80.8474 241.013 79.7166C240.215 78.573 239.127 77.6622 237.862 77.0774C236.597 76.4925 235.2 76.2546 233.813 76.3878C233.329 76.4424 232.849 76.5322 232.378 76.6565C230.673 77.1132 228.999 77.9676 227.964 79.3996C227.714 79.7571 227.438 80.0964 227.141 80.4152C227.61 80.3695 228.082 80.3292 228.554 80.3184Z" fill="black"/>
<path d="M228.554 80.0496C228.755 80.0336 228.958 80.0545 229.152 80.1114C229.437 80.2535 229.693 80.4466 229.908 80.681C230.258 80.9738 230.676 81.173 231.123 81.2599C231.571 81.3468 232.033 81.3187 232.467 81.1781C232.772 81.0411 233.097 80.9506 233.429 80.9094C233.942 80.9094 234.384 81.2855 234.65 81.7154C234.915 82.1453 235.052 82.6557 235.28 83.1151C235.508 83.5746 235.872 84.0098 236.374 84.1227C236.614 84.132 236.851 84.1867 237.071 84.2839C237.206 84.3937 237.31 84.5374 237.372 84.7003C237.79 85.6057 238.122 86.675 239.016 87.1183C239.344 87.2708 239.702 87.3488 240.064 87.3467C240.432 87.3737 240.801 87.3072 241.137 87.1532C241.467 86.9685 241.74 86.6961 241.925 86.366C242.483 85.4418 242.547 84.2973 242.416 83.2253C242.252 81.873 241.772 80.5786 241.013 79.4478C240.215 78.3042 239.127 77.3934 237.862 76.8086C236.597 76.2237 235.2 75.9858 233.813 76.119C233.329 76.1736 232.849 76.2634 232.378 76.3877C230.673 76.8444 228.999 77.6988 227.964 79.1308C227.714 79.4883 227.438 79.8276 227.141 80.1464C227.61 80.1007 228.082 80.0604 228.554 80.0496Z" fill="#3F3D56"/>
<path opacity="0.1" d="M221.715 95.0842C221.715 95.0842 222.029 97.5936 220.956 98.2196C219.884 98.8456 221.715 95.0842 221.715 95.0842Z" fill="black"/>
<path opacity="0.1" d="M244.465 114.52C244.465 114.52 247.013 110.759 247.372 111.833C247.731 112.908 244.465 114.52 244.465 114.52Z" fill="black"/>
<path opacity="0.1" d="M244.645 115.772C244.645 115.772 247.157 112.682 247.399 113.891C247.64 115.1 244.645 115.772 244.645 115.772Z" fill="black"/>
<path opacity="0.1" d="M237.264 112.094C236.353 112.107 235.464 111.813 234.738 111.261H234.518C233.766 111.95 232.778 112.322 231.759 112.301C231.229 112.313 230.702 112.217 230.21 112.02C229.718 111.822 229.272 111.526 228.897 111.151H228.605C227.833 111.781 226.863 112.116 225.867 112.098C224.872 112.08 223.915 111.709 223.166 111.051L222.118 111.032C222.118 111.032 223.346 114.31 222.611 116.355L240.533 116.675C240.395 114.917 240.438 113.149 240.662 111.401V111.376L239.678 111.358C238.97 111.849 238.126 112.107 237.264 112.094Z" fill="black"/>
<path opacity="0.1" d="M237.264 112.631C236.353 112.644 235.464 112.351 234.738 111.798H234.518C233.766 112.487 232.778 112.859 231.759 112.838C231.229 112.85 230.702 112.755 230.21 112.557C229.718 112.359 229.272 112.064 228.897 111.688H228.605C227.833 112.318 226.863 112.654 225.867 112.635C224.872 112.617 223.915 112.246 223.166 111.589L222.118 111.57C222.118 111.57 223.346 114.848 222.611 116.892L240.533 117.212C240.395 115.454 240.438 113.687 240.662 111.938V111.914L239.678 111.895C238.97 112.387 238.126 112.644 237.264 112.631Z" fill="black"/>
<path d="M237.264 112.362C236.353 112.375 235.464 112.082 234.738 111.529H234.518C233.766 112.218 232.778 112.59 231.759 112.569C231.229 112.581 230.702 112.486 230.21 112.288C229.718 112.091 229.272 111.795 228.897 111.419H228.605C227.833 112.049 226.863 112.385 225.867 112.367C224.872 112.348 223.915 111.978 223.166 111.32L222.118 111.301C222.118 111.301 223.346 114.579 222.611 116.623L240.533 116.943C240.395 115.185 240.438 113.418 240.662 111.669V111.645L239.678 111.626C238.97 112.118 238.126 112.375 237.264 112.362Z" fill="#3F3D56"/>
<path opacity="0.1" d="M236.468 94.4475C236.468 94.4475 240.241 94.6893 240.265 95.2267C240.289 95.764 236.468 94.4475 236.468 94.4475Z" fill="black"/>
<path opacity="0.1" d="M227.301 92.1558C227.301 92.1558 223.528 92.3976 223.504 92.9349C223.48 93.4722 227.301 92.1558 227.301 92.1558Z" fill="black"/>
<path opacity="0.1" d="M241.721 103.142C241.684 103.115 241.646 103.093 241.609 103.069C242.574 103.94 242.413 105.842 241.228 107.411C240.043 108.98 238.243 109.633 237.149 108.929C237.184 108.958 237.213 108.991 237.251 109.02C238.324 109.842 240.201 109.197 241.44 107.575C242.679 105.952 242.799 103.966 241.721 103.142Z" fill="black"/>
<path opacity="0.1" d="M220.994 107.209C220.039 105.485 220.163 103.58 221.243 102.857C221.203 102.876 221.16 102.892 221.12 102.913C219.935 103.574 219.779 105.554 220.761 107.338C221.742 109.122 223.512 110.025 224.697 109.375C224.737 109.352 224.774 109.327 224.81 109.3C223.627 109.837 221.949 108.934 220.994 107.209Z" fill="black"/>
<path opacity="0.1" d="M222.27 92.6636L221.925 93.2009L221.042 92.7308L221.506 92.0161C221.813 92.1614 222.076 92.3846 222.27 92.6636Z" fill="black"/>
<path d="M216.665 112.548C216.665 112.548 217.451 108.846 216.397 107.669C215.343 106.492 215.681 100.323 217.29 100.458C218.899 100.592 221.313 105.471 220.911 106.503C220.508 107.534 218.988 112.816 218.988 112.816L216.665 112.548Z" fill="#FBBEBE"/>
<path opacity="0.1" d="M241.898 85.8368C241.713 86.1668 241.44 86.4392 241.11 86.6239C240.774 86.7779 240.405 86.8445 240.037 86.8174C239.675 86.8195 239.317 86.7415 238.988 86.589C238.095 86.143 237.763 85.0737 237.345 84.171C237.292 84.0082 237.197 83.8619 237.071 83.7465C236.854 83.6476 236.62 83.5902 236.382 83.5773C235.88 83.4644 235.518 83.0265 235.288 82.5697C235.057 82.113 234.92 81.6079 234.657 81.17C234.395 80.7321 233.949 80.3479 233.437 80.364C233.104 80.4083 232.779 80.5034 232.474 80.6461C232.041 80.7856 231.578 80.8129 231.131 80.7256C230.684 80.6382 230.266 80.439 229.916 80.1464C229.701 79.9119 229.444 79.7189 229.16 79.5768C228.966 79.5199 228.763 79.499 228.562 79.515C228.253 79.515 227.948 79.5446 227.639 79.5687C227.486 79.7694 227.323 79.9614 227.148 80.1437C227.618 80.1034 228.09 80.0631 228.562 80.0523C228.763 80.0363 228.966 80.0572 229.16 80.1141C229.444 80.2562 229.701 80.4493 229.916 80.6837C230.266 80.9763 230.684 81.1755 231.131 81.2629C231.578 81.3503 232.041 81.3229 232.474 81.1834C232.779 81.0407 233.104 80.9456 233.437 80.9013C233.949 80.9013 234.392 81.2775 234.657 81.7073C234.923 82.1372 235.06 82.6477 235.288 83.1071C235.516 83.5665 235.88 84.0017 236.382 84.1146C236.62 84.1275 236.854 84.1849 237.071 84.2839C237.206 84.3937 237.31 84.5374 237.371 84.7003C237.79 85.6057 238.122 86.675 239.015 87.1183C239.344 87.2708 239.702 87.3488 240.064 87.3467C240.432 87.3737 240.801 87.3072 241.137 87.1532C241.467 86.9685 241.739 86.6961 241.925 86.366C242.341 85.6066 242.528 84.742 242.461 83.8782C242.441 84.5681 242.247 85.2417 241.898 85.8368Z" fill="black"/>
<path d="M217.854 115.484C219.187 115.484 220.267 114.751 220.267 113.845C220.267 112.94 219.187 112.207 217.854 112.207C216.521 112.207 215.44 112.94 215.44 113.845C215.44 114.751 216.521 115.484 217.854 115.484Z" fill="#575A89"/>
<path d="M139.181 205.072C184.873 205.072 221.914 167.963 221.914 122.188C221.914 76.4119 184.873 39.3035 139.181 39.3035C93.4891 39.3035 56.4485 76.4119 56.4485 122.188C56.4485 167.963 93.4891 205.072 139.181 205.072Z" fill="#FA4C3F"/>
<path d="M182.591 163.839C182.591 176.923 162.059 164.957 140.047 164.957C118.035 164.957 95.7712 176.429 95.7712 163.345C95.7712 155.884 102.867 145.508 113.047 137.972C120.717 132.292 130.135 128.225 139.597 128.225C149.326 128.225 158.857 132.628 166.46 138.673C176.055 146.295 182.591 156.537 182.591 163.839Z" fill="#444053"/>
<path d="M166.457 138.668C154.757 136.903 133.595 134.751 113.047 137.967C120.717 132.287 130.136 128.219 139.597 128.219C149.324 128.219 158.855 132.623 166.457 138.668Z" fill="#F6F8FB"/>
<path opacity="0.05" d="M95.7714 63.6797C95.7714 63.6797 70.8497 79.6413 71.0535 104.609C71.2573 129.576 95.7714 63.6797 95.7714 63.6797Z" fill="black"/>
<path d="M221.882 18.5999C221.882 18.5999 199.301 17.2377 201.964 33.0891C201.964 33.0891 201.428 35.8887 203.97 37.1621C203.97 37.1621 204.01 35.9881 206.284 36.3857C207.095 36.5215 207.919 36.5612 208.738 36.5039C209.846 36.4284 210.899 35.9926 211.737 35.2627C211.737 35.2627 218.084 32.6378 220.554 22.243C220.554 22.243 222.38 19.9754 222.308 19.3951L218.497 21.0232C218.497 21.0232 219.798 23.7771 218.765 26.0661C218.765 26.0661 218.642 21.1253 217.91 21.2301C217.762 21.2543 215.931 22.1839 215.931 22.1839C215.931 22.1839 218.17 26.9823 216.467 30.4669C216.467 30.4669 217.108 24.5562 215.217 22.5305L212.536 24.0995C212.536 24.0995 215.153 29.0537 213.378 33.0972C213.378 33.0972 213.834 26.8963 211.972 24.481L209.54 26.3805C209.54 26.3805 211.999 31.2649 210.5 34.6179C210.5 34.6179 210.304 27.3987 209.015 26.8533C209.015 26.8533 206.888 28.734 206.563 29.5051C206.563 29.5051 208.248 33.0488 207.204 34.9188C207.204 34.9188 206.563 30.1096 206.038 30.0827C206.038 30.0827 203.919 33.2691 203.697 35.4561C203.697 35.4561 203.79 32.2052 205.523 29.7791C205.523 29.7791 203.474 30.1311 202.281 31.4637C202.281 31.4637 202.61 29.2096 206.035 29.0134C206.035 29.0134 207.786 26.5954 208.256 26.4503C208.256 26.4503 204.836 26.1629 202.763 27.0844C202.763 27.0844 204.587 24.9592 208.88 25.9237L211.294 23.9625C211.294 23.9625 206.794 23.3445 204.885 24.027C204.885 24.027 207.081 22.1463 211.94 23.5165L214.555 21.9501C214.555 21.9501 210.717 21.1226 208.43 21.4128C208.43 21.4128 210.843 20.1098 215.319 21.523L217.197 20.682C217.197 20.682 214.383 20.1286 213.56 20.0426C212.737 19.9566 212.694 19.7256 212.694 19.7256C214.48 19.4346 216.313 19.6476 217.985 20.3408C217.985 20.3408 221.949 18.8497 221.882 18.5999Z" fill="#FA4C3F"/>
<path d="M198.722 11.5527C198.722 11.5527 188.531 10.9348 189.722 18.0974C189.722 18.0974 189.483 19.3629 190.628 19.9378C190.628 19.9378 190.644 19.4005 191.674 19.5885C192.04 19.6489 192.412 19.6669 192.782 19.6423C193.283 19.6065 193.759 19.4095 194.139 19.0808C194.139 19.0808 197.005 17.8933 198.121 13.1969C198.121 13.1969 198.947 12.1733 198.926 11.91L197.204 12.6462C197.204 12.6462 197.794 13.8901 197.33 14.9245C197.33 14.9245 197.274 12.6918 196.944 12.7456C196.877 12.7456 196.048 13.1754 196.048 13.1754C196.048 13.1754 197.062 15.3436 196.297 16.918C196.297 16.918 196.587 14.2474 195.734 13.3313L194.522 14.0406C194.522 14.0406 195.705 16.2812 194.903 18.1082C194.903 18.1082 195.107 15.306 194.267 14.2152L193.168 15.0722C193.168 15.0722 194.278 17.278 193.602 18.7933C193.602 18.7933 193.514 15.5317 192.929 15.2845C192.929 15.2845 191.969 16.1335 191.822 16.4827C191.822 16.4827 192.583 18.0948 192.111 18.9303C192.111 18.9303 191.822 16.7568 191.575 16.7487C191.575 16.7487 190.617 18.1861 190.518 19.1667C190.564 18.2541 190.848 17.3696 191.342 16.601C190.79 16.7055 190.281 16.9699 189.877 17.3613C189.877 17.3613 190.025 16.343 191.578 16.2544C191.578 16.2544 192.369 15.1636 192.581 15.0964C192.581 15.0964 191.036 14.9675 190.1 15.3839C190.1 15.3839 190.923 14.4221 192.865 14.8466L193.938 13.9626C193.938 13.9626 191.905 13.694 191.041 13.9895C191.041 13.9895 192.033 13.1405 194.23 13.7611L195.41 13.0519C195.41 13.0519 193.677 12.6784 192.642 12.8127C192.642 12.8127 193.734 12.2244 195.756 12.8638L196.601 12.4823C196.601 12.4823 195.329 12.2324 194.959 12.1948C194.589 12.1572 194.565 12.0524 194.565 12.0524C195.37 11.9182 196.197 12.0113 196.952 12.3211C196.952 12.3211 198.751 11.6655 198.722 11.5527Z" fill="#FA4C3F"/>
<path opacity="0.1" d="M287.778 196.13C291.766 196.13 295 195.583 295 194.908C295 194.233 291.766 193.686 287.778 193.686C283.789 193.686 280.556 194.233 280.556 194.908C280.556 195.583 283.789 196.13 287.778 196.13Z" fill="#FA4C3F"/>
<path opacity="0.1" d="M12.5426 216.466C16.5312 216.466 19.7646 215.919 19.7646 215.243C19.7646 214.568 16.5312 214.021 12.5426 214.021C8.55396 214.021 5.32056 214.568 5.32056 215.243C5.32056 215.919 8.55396 216.466 12.5426 216.466Z" fill="#FA4C3F"/>
<path opacity="0.1" d="M54.4666 218C58.4552 218 61.6886 217.453 61.6886 216.778C61.6886 216.102 58.4552 215.555 54.4666 215.555C50.478 215.555 47.2446 216.102 47.2446 216.778C47.2446 217.453 50.478 218 54.4666 218Z" fill="#FA4C3F"/>
<path d="M271.972 209.835C277.927 209.835 282.755 209.017 282.755 208.008C282.755 206.999 277.927 206.181 271.972 206.181C266.016 206.181 261.188 206.999 261.188 208.008C261.188 209.017 266.016 209.835 271.972 209.835Z" fill="#FA4C3F"/>
<path d="M276.429 205.023C276.921 204.621 277.28 204.079 277.459 203.468C277.59 202.853 277.327 202.111 276.74 201.885C276.08 201.633 275.375 202.092 274.841 202.554C274.307 203.016 273.693 203.543 272.993 203.446C273.353 203.12 273.623 202.705 273.775 202.243C273.927 201.781 273.957 201.288 273.862 200.811C273.832 200.613 273.748 200.427 273.621 200.273C273.254 199.881 272.591 200.048 272.151 200.357C270.757 201.34 270.368 203.237 270.36 204.945C270.22 204.33 270.338 203.688 270.336 203.065C270.333 202.441 270.159 201.721 269.628 201.391C269.298 201.215 268.928 201.128 268.555 201.138C267.928 201.114 267.23 201.176 266.801 201.635C266.265 202.208 266.407 203.164 266.871 203.785C267.335 204.405 268.037 204.808 268.684 205.241C269.204 205.551 269.648 205.974 269.982 206.48C270.021 206.551 270.053 206.625 270.078 206.703H274.007C274.886 206.255 275.701 205.69 276.429 205.023Z" fill="#FA4C3F"/>
<path d="M15.9137 182.496C15.9137 182.496 17.386 184.425 15.2325 187.332C13.079 190.239 11.3037 192.705 12.0144 194.521C12.0144 194.521 15.262 189.11 17.9143 189.032C20.5665 188.954 18.8207 185.749 15.9137 182.496Z" fill="#FA4C3F"/>
<path opacity="0.1" d="M15.9136 182.496C16.0414 182.682 16.1425 182.886 16.214 183.1C18.7938 186.136 20.1669 188.971 17.6889 189.04C15.3772 189.108 12.5936 193.245 11.9419 194.29C11.9647 194.371 11.9915 194.451 12.0223 194.529C12.0223 194.529 15.27 189.118 17.9222 189.04C20.5745 188.962 18.8206 185.749 15.9136 182.496Z" fill="black"/>
<path d="M18.6516 184.954C18.6516 185.633 18.5738 186.184 18.48 186.184C18.3861 186.184 18.311 185.647 18.311 184.954C18.311 184.261 18.4049 184.594 18.5014 184.594C18.598 184.594 18.6516 184.274 18.6516 184.954Z" fill="#FFD037"/>
<path d="M19.5797 185.765C18.9843 186.09 18.4668 186.286 18.4212 186.203C18.3756 186.12 18.8234 185.792 19.4188 185.467C20.0141 185.142 19.7781 185.378 19.8237 185.467C19.8693 185.556 20.1858 185.44 19.5797 185.765Z" fill="#FFD037"/>
<path d="M8.13108 182.496C8.13108 182.496 6.65879 184.425 8.80957 187.332C10.9603 190.239 12.7384 192.705 12.0277 194.521C12.0277 194.521 8.77739 189.11 6.1278 189.032C3.47821 188.954 5.22136 185.749 8.13108 182.496Z" fill="#FA4C3F"/>
<path opacity="0.1" d="M8.13106 182.496C8.00203 182.681 7.90084 182.885 7.8307 183.1C5.25084 186.136 3.8751 188.971 6.35573 189.04C8.66474 189.108 11.4511 193.245 12.1001 194.29C12.0782 194.371 12.0522 194.451 12.0223 194.529C12.0223 194.529 8.77201 189.118 6.12242 189.04C3.47283 188.962 5.22134 185.749 8.13106 182.496Z" fill="black"/>
<path d="M5.39307 184.954C5.39307 185.633 5.46816 186.184 5.56202 186.184C5.65588 186.184 5.73097 185.647 5.73097 184.954C5.73097 184.261 5.63711 184.594 5.54325 184.594C5.44938 184.594 5.39307 184.274 5.39307 184.954Z" fill="#FFD037"/>
<path d="M4.45178 185.765C5.04714 186.09 5.5674 186.286 5.61299 186.203C5.65858 186.12 5.21072 185.792 4.61537 185.467C4.02002 185.142 4.25333 185.378 4.21043 185.467C4.16752 185.556 3.85643 185.44 4.45178 185.765Z" fill="#FFD037"/>
<path d="M5.8623 194.277C5.8623 194.277 9.9815 194.15 11.2258 193.264C12.4702 192.377 17.5629 191.321 17.8713 192.726C18.1797 194.132 24.0608 199.792 19.4106 199.83C14.7604 199.868 8.60575 199.102 7.36678 198.347C6.1278 197.592 5.8623 194.277 5.8623 194.277Z" fill="#A8A8A8"/>
<path opacity="0.2" d="M19.4884 199.349C14.8382 199.387 8.68353 198.621 7.44455 197.866C6.50057 197.291 6.12512 195.225 5.99908 194.271H5.8623C5.8623 194.271 6.13048 197.6 7.36141 198.355C8.59235 199.11 14.7551 199.876 19.4052 199.838C20.7461 199.838 21.2101 199.346 21.1859 198.64C20.9982 199.072 20.4887 199.341 19.4884 199.349Z" fill="black"/>
<path d="M109.768 111.32C111.342 111.231 118.751 110.672 123.458 107.983C124.214 107.538 125.068 107.286 125.944 107.25C127.44 107.207 129.162 107.833 128.06 111.336C126.274 117.067 115.903 123.515 109.467 123.158C103.278 122.814 95.935 120.315 91.0863 111.53C90.6218 110.684 90.3929 109.729 90.4239 108.765C90.4802 106.992 91.1239 104.77 94.4466 107.247C98.9359 110.592 107.453 111.226 109.161 111.32C109.363 111.331 109.566 111.331 109.768 111.32Z" fill="#444053"/>
<path d="M169.303 111.32C170.877 111.231 178.287 110.672 182.993 107.983C183.749 107.538 184.603 107.286 185.479 107.25C186.976 107.207 188.697 107.833 187.595 111.336C185.809 117.067 175.439 123.515 169.002 123.158C162.813 122.814 155.47 120.315 150.621 111.53C150.157 110.684 149.928 109.729 149.959 108.765C150.015 106.992 150.659 104.77 153.982 107.247C158.471 110.592 166.988 111.226 168.697 111.32C168.898 111.331 169.101 111.331 169.303 111.32Z" fill="#444053"/>
</g>
<defs>
<linearGradient id="paint0_linear_1112_124" x1="239.251" y1="203.648" x2="239.251" y2="70.9149" gradientUnits="userSpaceOnUse">
<stop stop-color="#808080" stop-opacity="0.25"/>
<stop offset="0.54" stop-color="#808080" stop-opacity="0.12"/>
<stop offset="1" stop-color="#808080" stop-opacity="0.1"/>
</linearGradient>
<clipPath id="clip0_1112_124">
<rect width="295" height="218" fill="white"/>
</clipPath>
</defs>
</svg>
